<svg xmlns="http://www.w3.org/2000/svg" width="32" height="32" viewBox="0 0 24 24" fill="none" stroke="currentColor" stroke-width="2" stroke-linecap="round" stroke-linejoin="round">
  <defs>
    <linearGradient id="gradient" x1="0%" y1="0%" x2="100%" y2="100%">
      <stop offset="0%" style="stop-color:#0ea5e9;stop-opacity:1" />
      <stop offset="100%" style="stop-color:#d946ef;stop-opacity:1" />
    </linearGradient>
  </defs>
  <path d="M2 15c6.667-6 13.333 0 20-6" stroke="url(#gradient)"/>
  <path d="M9 22c1.798-1.998 2.518-3.995 2.807-5.993" stroke="url(#gradient)"/>
  <path d="M15 2c-1.798 1.998-2.518 3.995-2.807 5.993" stroke="url(#gradient)"/>
  <path d="m17 6-2.5-2.5" stroke="url(#gradient)"/>
  <path d="m14 8-1-1" stroke="url(#gradient)"/>
  <path d="m7 18 2.5 2.5" stroke="url(#gradient)"/>
  <path d="m3.5 14.5.5.5" stroke="url(#gradient)"/>
  <path d="m20 9 .5.5" stroke="url(#gradient)"/>
  <path d="m6.5 12.5 1 1" stroke="url(#gradient)"/>
  <path d="m16.5 10.5 1 1" stroke="url(#gradient)"/>
  <path d="m10 16 1.5 1.5" stroke="url(#gradient)"/>
</svg>
